<svg xmlns="http://www.w3.org/2000/svg" width="32" height="32" viewBox="0 0 32 32">
  <g>
    <path d="M .8351675 31.163434 C 1.2154636 31.53736 1.6602205 31.78557 2.1694382 31.908066 C 2.6786558 32.03056 3.183042 32.03056 3.6825964 31.908066 C 4.182151 31.78557 4.609192 31.54703 4.9637196 31.192445 L 16.005403 20.148683 L 27.0278 31.18277 C 27.39521 31.550255 27.828694 31.79363 28.328248 31.912902 C 28.827803 32.032172 29.328968 32.028948 29.831743 31.90323 C 30.33452 31.777513 30.772834 31.52769 31.146688 31.15376 C 31.52054 30.779834 31.77032 30.341436 31.89602 29.838566 C 32.021693 29.335697 32.024914 28.83444 31.905683 28.334794 C 31.786424 27.83515 31.54631 27.401586 31.18534 27.034105 L 20.162984 15.990324 L 31.18534 4.9659046 C 31.54631 4.598424 31.788035 4.1648596 31.910514 3.6652117 C 32.032967 3.1655637 32.029746 2.6659157 31.90085 2.1662677 C 31.77193 1.6666197 31.52054 1.2298337 31.146688 .8559098 C 30.766365 .47554247 30.326427 .22249681 29.826872 .0967728 C 29.327344 -.028951213 28.827803 -.032172874 28.328248 .08710782 C 27.828694 .2063885 27.39521 .4497692 27.0278 .8172498 L 16.005403 11.841669 L 4.9637196 .8075452 C 4.609192 .45297763 4.1805404 .2160535 3.677765 .0967728 C 3.1749893 -.022481483 2.6689927 -.022481483 2.159775 .0967728 C 1.6505573 .2160535 1.2090215 .4658775 .8351675 .8462448 C .4677556 1.2201687 .22442049 1.6601764 .10516212 2.1662677 C -.014069853 2.672359 -.014069853 3.1768395 .10516212 3.679709 C .22442049 4.182579 .45807924 4.608089 .8061384 4.9562396 L 11.847861 15.990324 L .8061384 27.053447 C .45807924 27.401587 .22119943 27.82548 .09549894 28.325125 C -.030201548 28.82477 -.031812077 29.32925 .09066735 29.838566 C .21314678 30.347882 .4613135 30.789505 .8351675 31.163434 Z" fill="black" opacity=".6"/>
  </g>
</svg>
